<?xml version="1.0" encoding="utf-8"?>
<!-- Generator: Adobe Illustrator 16.0.0, SVG Export Plug-In . SVG Version: 6.00 Build 0)  -->
<!DOCTYPE svg PUBLIC "-//W3C//DTD SVG 1.1//EN" "http://www.w3.org/Graphics/SVG/1.1/DTD/svg11.dtd">
<svg version="1.1"
	 id="Layer_1" xmlns:inkscape="http://www.inkscape.org/namespaces/inkscape" xmlns:dc="http://purl.org/dc/elements/1.1/" xmlns:sodipodi="http://sodipodi.sourceforge.net/DTD/sodipodi-0.dtd" xmlns:svg="http://www.w3.org/2000/svg" xmlns:rdf="http://www.w3.org/1999/02/22-rdf-syntax-ns#" xmlns:cc="http://creativecommons.org/ns#" sodipodi:docname="freeCodeCamp.svg" inkscape:version="0.48.5 r10040"
	 xmlns="http://www.w3.org/2000/svg" xmlns:xlink="http://www.w3.org/1999/xlink" x="0px" y="0px" width="512.3px" height="63.8px"
	 viewBox="351.4 236.7 512.3 63.8" style="enable-background:new 351.4 236.7 512.3 63.8;" xml:space="preserve">
<sodipodi:namedview  id="namedview43" pagecolor="#ffffff" guidetolerance="10" gridtolerance="10" showgrid="false" borderopacity="1" objecttolerance="10" inkscape:cy="-163.56938" inkscape:zoom="1" bordercolor="#666666" inkscape:cx="215.72458" inkscape:window-width="1366" inkscape:window-maximized="1" inkscape:window-x="-4" inkscape:current-layer="Layer_1" inkscape:pageopacity="0" inkscape:window-y="-4" inkscape:window-height="705" inkscape:pageshadow="2">
	</sodipodi:namedview>
<path id="path29" inkscape:export-xdpi="90" inkscape:export-ydpi="90" inkscape:export-filename="C:\Users\anon\Desktop\logo4.0.png" inkscape:connector-curvature="0" style="fill:#2AAC2A;" d="
	M351.4,267.6c0-8.8,3-16.6,9.2-23.5c2.2-2.6,4-3.8,5.2-3.8c0.4,0,0.9,0.1,1.2,0.4c0.3,0.3,0.6,0.7,0.6,1.1c0,0.7-0.8,1.7-2.4,3.2
	c-6.4,6.1-9.6,13.7-9.6,22.8c0,10,3.3,18.2,9.9,24.4c1.3,1.2,2,2.2,2,3c0,0.4-0.2,0.9-0.6,1.2c-0.3,0.3-0.8,0.6-1.2,0.6
	c-1.6,0-3.7-1.8-6.5-5.3C354,285.1,351.4,277.1,351.4,267.6z"/>
<path id="path31" inkscape:export-xdpi="90" inkscape:export-ydpi="90" inkscape:export-filename="C:\Users\anon\Desktop\logo4.0.png" inkscape:connector-curvature="0" style="fill:#2AAC2A;" d="
	M435.8,269.8c0,8.8-3,16.6-9.2,23.5c-2.2,2.6-4,3.8-5.2,3.8c-0.4,0-0.9-0.1-1.2-0.4c-0.3-0.3-0.6-0.8-0.6-1.2c0-0.7,0.8-1.7,2.4-3.1
	c6.4-6.1,9.6-13.7,9.6-22.8c0-10-3.3-18.2-9.9-24.4c-1.3-1.2-2-2.2-2-3c0-0.4,0.2-0.9,0.6-1.2c0.3-0.3,0.8-0.6,1.2-0.6
	c1.5,0,3.7,1.8,6.5,5.3C433.1,252.4,435.8,260.4,435.8,269.8z"/>
<g id="g33" transform="translate(-4.8945596e-8,2)" inkscape:export-xdpi="90" inkscape:export-ydpi="90" inkscape:export-filename="C:\Users\anon\Desktop\logo4.0.png">
	<line id="line35" style="fill:#2AAC2A;" x1="375.2" y1="287.4" x2="413.9" y2="287.4"/>
	<path id="path37" inkscape:connector-curvature="0" style="fill:#2AAC2A;" d="M413.8,289.8h-38.7c-1.2,0-2.4-1-2.4-2.4
		c0-1.3,1-2.4,2.4-2.4h38.7c1.2,0,2.4,1,2.4,2.4C416.1,288.8,415.1,289.8,413.8,289.8z"/>
</g>
<path id="path3081" inkscape:export-xdpi="90" inkscape:export-ydpi="90" inkscape:export-filename="C:\Users\anon\Desktop\logo4.0.png" inkscape:connector-curvature="0" style="fill:#2AAC2A;" d="
	M406.3,258.2c-0.6-2.1-1.6-4.1-3.1-5.6c-0.4-0.4-0.8-0.8-1.3-1.2c-0.3-0.3-1.2-0.8-1.3-1.2c0.9,2.1,1.8,4.2,1.1,6.5
	c-0.3,1-1.4,3.5-2.9,2.9c-1.4-0.6-1.2-3.6-1.4-4.7c-0.3-2.9-1-5.8-2.5-8.4c-0.9-1.4-2-2.6-3.4-3.4c-1.8-1.1-3.8-1.8-5.8-1
	c0.5-0.2,1.7,1.2,1.9,1.5c0.7,0.9,1.3,1.9,1.7,3c0.7,2.2,0.1,4.8-0.7,6.9c-1.6,4.4-4.3,8.3-5.6,12.8c-0.4,1.6-0.8,3.2-0.8,4.8
	c-0.3,5.1,2.4,9.9,6.6,12.7c1,0.7,2.7,1.5,3.9,1c-3.6-1.9-4.7-3.5-5.3-5.7c-1.3-5.2,3.6-8.5,5.7-12.6c0.6-1.1,1-2.3,0.8-3.5
	c-0.1-0.5-0.6-2.7-1.3-2.6c2.1-0.3,3.5,1.1,4.2,2.9c0.8,1.9,1.2,3.9,0.9,6c-0.1,0.7-0.6,2.8,0.4,3c1.4,0.2,2.5-1.6,2.3-3.4
	c-0.1-0.8-0.3-2.1-0.3-2.1c1.5,1.8,2.1,3.6,2.3,5.6c0.4,3.5-1.1,8.2-3.9,11c1.2-1.2,2.7-2,3.8-3.3c1.2-1.3,2.1-2.8,2.8-4.5
	c1.6-3.6,2.5-7.7,2.2-11.6C407.2,262,406.9,260.1,406.3,258.2L406.3,258.2z"/>
<g>
	<path style="fill:#2AAC2A;" d="M452.3,252.6v11.9h18.5c1.3,0,2.1,0.7,2.1,2.1v8.5c0,1.3-0.7,2-2.1,2h-18.5v18.2c0,1.3-0.7,2-2,2h-9
		c-1.3,0-2.1-0.7-2.1-2V242c0-1.3,0.7-2,2.1-2h11.1h18.9c1.3,0,2,0.7,2,2v8.5c0,1.3-0.7,2-2,2H452.3z"/>
	<path style="fill:#2AAC2A;" d="M478.2,268.7c0-16.9,12.5-29.8,29.8-29.8c13.1,0,24.3,8.2,27.6,20.2c0.3,1.4-0.4,2.3-1.8,2.3h-9.7
		c-1.1,0-1.8-0.6-2.3-1.6c-2.3-5-7.6-8-13.9-8c-10.2,0-16.7,6.8-16.7,17.1s6.6,17.1,16.7,17.1c6.2,0,11.6-3,13.9-8
		c0.5-1.1,1.1-1.6,2.3-1.6h9.7c1.4,0,2.1,0.8,1.8,2.1c-3.2,12-14.4,20.3-27.6,20.3C490.7,298.5,478.2,285.6,478.2,268.7z"/>
	<path style="fill:#2AAC2A;" d="M539.4,268.7c0-16.9,12.5-29.8,29.8-29.8c13.1,0,24.3,8.2,27.6,20.2c0.3,1.4-0.4,2.3-1.8,2.3h-9.7
		c-1.1,0-1.8-0.6-2.3-1.6c-2.3-5-7.6-8-13.9-8c-10.2,0-16.7,6.8-16.7,17.1s6.6,17.1,16.7,17.1c6.2,0,11.6-3,13.9-8
		c0.5-1.1,1.1-1.6,2.3-1.6h9.7c1.4,0,2.1,0.8,1.8,2.1c-3.2,12-14.4,20.3-27.6,20.3C552,298.5,539.4,285.6,539.4,268.7z"/>
	<path style="fill:#2AAC2A;" d="M635.9,294.6c0.5,0,0.8,0.3,0.8,0.8v1.1c0,0.5-0.3,0.8-0.8,0.8h-28.5h-0.8c-0.5,0-0.8-0.3-0.8-0.8
		v-55.8c0-0.5,0.3-0.8,0.8-0.8h1.4c0.5,0,0.8,0.3,0.8,0.8v53.8H635.9L635.9,294.6z"/>
	<path style="fill:#2AAC2A;" d="M688.5,296.5c0.2,0.6,0,0.9-0.7,0.9h-1.5c-0.5,0-0.8-0.2-0.9-0.7l-5.6-14.5h-30.2l-5.6,14.5
		c-0.2,0.4-0.5,0.7-0.9,0.7h-1.5c-0.6,0-0.9-0.4-0.7-0.9l21.9-55.8c0.2-0.4,0.5-0.7,0.9-0.7h1.9c0.5,0,0.8,0.2,0.9,0.7L688.5,296.5
		L688.5,296.5z M678.7,279.5l-14-35.9l-14,35.9H678.7z"/>
	<path style="fill:#2AAC2A;" d="M748,269.8c0.5,0,0.8,0.3,0.8,0.8v2v24c0,0.5-0.3,0.8-0.8,0.8h-1.4c-0.5,0-0.8-0.3-0.8-0.8v-10.7
		c-4.1,8.3-13.3,12.4-22.8,12.4c-17.9,0-30.1-13.2-30.1-29.6s12.4-29.6,29.6-29.6c11.8,0,22,6.9,26,16.9c0.2,0.6-0.1,0.9-0.7,0.9
		h-1.5c-0.5,0-0.8-0.2-1-0.6c-3.6-8.5-12.6-14.4-22.8-14.4c-15.5,0-26.6,11.9-26.6,26.7s10.8,26.7,27.1,26.7
		c11.2,0,21.8-6.1,22.8-18v-4.9h-21.6c-0.5,0-0.8-0.3-0.8-0.8v-1.1c0-0.5,0.3-0.8,0.8-0.8H748L748,269.8z"/>
	<path style="fill:#2AAC2A;" d="M759.3,268.7c0-16.3,13.1-29.6,29.6-29.6s29.6,13.2,29.6,29.6s-13.1,29.6-29.6,29.6
		S759.3,285,759.3,268.7z M815.4,268.7c0-14.8-11.8-26.7-26.6-26.7s-26.6,11.9-26.6,26.7s11.8,26.7,26.6,26.7
		S815.4,283.5,815.4,268.7z"/>
	<path style="fill:#2AAC2A;" d="M845.9,298.3c-11,0-19.2-5.5-19.7-15.1c0-0.5,0.3-0.8,0.8-0.8h1.4c0.5,0,0.8,0.3,0.8,0.8
		c0.4,7.5,6.6,12.3,16.7,12.3c8.9,0,14.7-5,14.7-11.9c0-8.2-7.3-10.8-15-13.7c-8.6-3.2-17.9-5.9-17.9-16.5c0-8.4,7.4-14.3,17-14.3
		c9,0,16.7,5.7,17.2,14.2c0,0.5-0.3,0.8-0.8,0.8h-1.4c-0.5,0-0.8-0.3-0.8-0.8c-0.4-6.5-6.1-11.4-14.2-11.4c-8.7,0-14,5.2-14,11.5
		c0,8.3,7.5,10.7,15.4,13.6c8.5,3.3,17.5,6.2,17.5,16.5C863.7,292.5,855.8,298.3,845.9,298.3L845.9,298.3z"/>
</g>
</svg>
